<svg width="242" height="40" viewBox="0 0 242 40" fill="none" xmlns="http://www.w3.org/2000/svg">
    <g clip-path="url(#clip0_4504_22809)">
    <path d="M14.9139 5C11.9642 5 9.08075 5.87542 6.62817 7.51556C4.1756 9.1557 2.26406 11.4869 1.13526 14.2143C0.00646465 16.9418 -0.288883 19.943 0.286572 22.8384C0.862026 25.7339 2.28244 28.3935 4.36818 30.481C6.45392 32.5685 9.11132 33.9901 12.0043 34.5661C14.8973 35.142 17.896 34.8464 20.6212 33.7167C23.3463 32.5869 25.6756 30.6738 27.3143 28.2191C28.9531 25.7645 29.8277 22.8786 29.8277 19.9264C29.8277 15.9677 28.2565 12.1711 25.4596 9.37186C22.6627 6.5726 18.8693 5 14.9139 5ZM14.9139 29.1563C13.0899 29.1563 11.3069 28.615 9.79035 27.6008C8.27378 26.5866 7.09176 25.1451 6.39376 23.4586C5.69576 21.772 5.51314 19.9162 5.86897 18.1258C6.22481 16.3354 7.10313 14.6908 8.39287 13.3999C9.6826 12.1091 11.3258 11.2301 13.1147 10.8739C14.9036 10.5178 16.7579 10.7006 18.443 11.3991C20.1281 12.0977 21.5684 13.2808 22.5818 14.7986C23.5951 16.3164 24.136 18.1009 24.136 19.9264C24.136 22.3744 23.1644 24.722 21.4349 26.453C19.7054 28.1839 17.3597 29.1563 14.9139 29.1563Z" fill="#36BCF7"/>
    <path d="M66.4998 5C63.5501 5 60.6667 5.87542 58.2141 7.51556C55.7615 9.1557 53.85 11.4869 52.7212 14.2143C51.5924 16.9418 51.2971 19.943 51.8725 22.8384C52.448 25.7339 53.8684 28.3935 55.9541 30.481C58.0399 32.5685 60.6973 33.9901 63.5903 34.5661C66.4833 35.142 69.482 34.8464 72.2071 33.7167C74.9323 32.5869 77.2615 30.6738 78.9002 28.2191C80.539 25.7645 81.4137 22.8786 81.4137 19.9264C81.4137 15.9677 79.8424 12.1711 77.0455 9.37186C74.2486 6.5726 70.4552 5 66.4998 5ZM66.4998 29.1563C64.6759 29.1563 62.8929 28.615 61.3763 27.6008C59.8597 26.5866 58.6777 25.1451 57.9797 23.4586C57.2817 21.772 57.0991 19.9162 57.4549 18.1258C57.8107 16.3354 58.6891 14.6908 59.9788 13.3999C61.2685 12.1091 62.9118 11.2301 64.7007 10.8739C66.4896 10.5178 68.3438 10.7006 70.029 11.3991C71.7141 12.0977 73.1544 13.2808 74.1677 14.7986C75.1811 16.3164 75.7219 18.1009 75.7219 19.9264C75.7219 22.3744 74.7503 24.722 73.0208 26.453C71.2914 28.1839 68.9457 29.1563 66.4998 29.1563Z" fill="#36BCF7"/>
    <path d="M118.086 5C115.136 5 112.253 5.87542 109.8 7.51556C107.347 9.1557 105.436 11.4869 104.307 14.2143C103.178 16.9418 102.883 19.943 103.458 22.8384C104.034 25.7339 105.454 28.3935 107.54 30.481C109.626 32.5685 112.283 33.9901 115.176 34.5661C118.069 35.142 121.068 34.8464 123.793 33.7167C126.518 32.5869 128.847 30.6738 130.486 28.2191C132.125 25.7645 133 22.8786 133 19.9264C133 15.9677 131.428 12.1711 128.631 9.37186C125.835 6.5726 122.041 5 118.086 5ZM118.086 29.1563C116.262 29.1563 114.479 28.615 112.962 27.6008C111.446 26.5866 110.264 25.1451 109.566 23.4586C108.868 21.772 108.685 19.9162 109.041 18.1258C109.397 16.3354 110.275 14.6908 111.565 13.3999C112.854 12.1091 114.498 11.2301 116.287 10.8739C118.076 10.5178 119.93 10.7006 121.615 11.3991C123.3 12.0977 124.74 13.2808 125.754 14.7986C126.767 16.3164 127.308 18.1009 127.308 19.9264C127.308 22.3744 126.336 24.722 124.607 26.453C122.877 28.1839 120.532 29.1563 118.086 29.1563Z" fill="#36BCF7"/>
    <path d="M43.4307 22.3781V35.0072H34.847V22.3781H32.6855V16.321H34.847C34.9623 11.2955 36.8009 7.91651 40.3629 6.18398C42.2947 5.50832 44.3254 5.15983 46.3717 5.15283H49.8473V11.0585C46.6858 11.2172 44.8606 11.6397 44.3717 12.3262C43.7649 13.131 43.4335 14.11 43.4264 15.1182V16.321H48.7767V22.3781H43.4307Z" fill="#36BCF7"/>
    <path d="M95.0167 22.3781V35.0072H86.4329V22.3781H84.2715V16.321H86.4329C86.5482 11.2955 88.3869 7.91651 91.9489 6.18398C93.8806 5.50832 95.9114 5.15983 97.9577 5.15283H101.433V11.0585C98.2718 11.2172 96.4466 11.6397 95.9576 12.3262C95.3509 13.131 95.0194 14.11 95.0124 15.1182V16.321H100.363V22.3781H95.0167Z" fill="#36BCF7"/>
    <path d="M69.4759 9.96095C67.5712 9.47063 65.5736 9.47063 63.6689 9.96095C62.7178 10.2004 61.7034 9.83404 61.3634 8.96441C61.019 8.09911 61.702 6.95259 62.9412 6.63531C65.325 6.02098 67.8255 6.02098 70.2094 6.63531C71.4486 6.95259 72.1316 8.09911 71.7944 8.96441C71.4414 9.83116 70.427 10.2004 69.4759 9.96095Z" fill="#FFFDFD"/>
    <path d="M70.1025 9.68697C70.8188 9.68697 71.3994 9.10586 71.3994 8.38902C71.3994 7.67218 70.8188 7.09106 70.1025 7.09106C69.3863 7.09106 68.8057 7.67218 68.8057 8.38902C68.8057 9.10586 69.3863 9.68697 70.1025 9.68697Z" fill="#36BCF7"/>
    </g>
    <path d="M145.276 33V6.81818H155.759C157.685 6.81818 159.291 7.10369 160.578 7.67472C161.865 8.24574 162.832 9.03835 163.48 10.0526C164.128 11.0582 164.452 12.2173 164.452 13.5298C164.452 14.5526 164.247 15.4517 163.838 16.2273C163.429 16.9943 162.866 17.625 162.151 18.1193C161.443 18.6051 160.634 18.9503 159.722 19.1548V19.4105C160.719 19.4531 161.652 19.7344 162.521 20.2543C163.399 20.7741 164.111 21.5028 164.656 22.4403C165.202 23.3693 165.474 24.4773 165.474 25.7642C165.474 27.1534 165.129 28.3935 164.439 29.4844C163.757 30.5668 162.747 31.4233 161.409 32.054C160.071 32.6847 158.422 33 156.462 33H145.276ZM150.811 28.4744H155.324C156.866 28.4744 157.991 28.1804 158.699 27.5923C159.406 26.9957 159.76 26.2031 159.76 25.2145C159.76 24.4901 159.585 23.8509 159.236 23.2969C158.886 22.7429 158.388 22.3082 157.74 21.9929C157.101 21.6776 156.338 21.5199 155.452 21.5199H150.811V28.4744ZM150.811 17.7741H154.915C155.673 17.7741 156.347 17.642 156.935 17.3778C157.531 17.1051 158 16.7216 158.341 16.2273C158.69 15.733 158.865 15.1406 158.865 14.4503C158.865 13.5043 158.528 12.7415 157.855 12.1619C157.19 11.5824 156.244 11.2926 155.017 11.2926H150.811V17.7741ZM169.076 33V6.81818H174.612V28.4361H185.836V33H169.076ZM212.542 19.9091C212.542 22.7642 212.001 25.1932 210.919 27.196C209.845 29.1989 208.379 30.7287 206.521 31.7855C204.672 32.8338 202.592 33.358 200.282 33.358C197.956 33.358 195.868 32.8295 194.018 31.7727C192.169 30.7159 190.707 29.1861 189.633 27.1832C188.559 25.1804 188.022 22.7557 188.022 19.9091C188.022 17.054 188.559 14.625 189.633 12.6222C190.707 10.6193 192.169 9.09375 194.018 8.04545C195.868 6.98864 197.956 6.46023 200.282 6.46023C202.592 6.46023 204.672 6.98864 206.521 8.04545C208.379 9.09375 209.845 10.6193 210.919 12.6222C212.001 14.625 212.542 17.054 212.542 19.9091ZM206.93 19.9091C206.93 18.0597 206.653 16.5 206.099 15.2301C205.554 13.9602 204.782 12.9972 203.785 12.3409C202.788 11.6847 201.62 11.3565 200.282 11.3565C198.944 11.3565 197.777 11.6847 196.779 12.3409C195.782 12.9972 195.007 13.9602 194.453 15.2301C193.907 16.5 193.635 18.0597 193.635 19.9091C193.635 21.7585 193.907 23.3182 194.453 24.5881C195.007 25.858 195.782 26.821 196.779 27.4773C197.777 28.1335 198.944 28.4616 200.282 28.4616C201.62 28.4616 202.788 28.1335 203.785 27.4773C204.782 26.821 205.554 25.858 206.099 24.5881C206.653 23.3182 206.93 21.7585 206.93 19.9091ZM234.004 15.2812C233.825 14.6591 233.573 14.1094 233.249 13.6321C232.925 13.1463 232.529 12.7372 232.06 12.4048C231.6 12.0639 231.072 11.804 230.475 11.625C229.887 11.446 229.235 11.3565 228.519 11.3565C227.181 11.3565 226.005 11.6889 224.991 12.3537C223.985 13.0185 223.201 13.9858 222.638 15.2557C222.076 16.517 221.795 18.0597 221.795 19.8835C221.795 21.7074 222.072 23.2585 222.626 24.5369C223.18 25.8153 223.964 26.7912 224.978 27.4645C225.992 28.1293 227.19 28.4616 228.57 28.4616C229.823 28.4616 230.893 28.2401 231.779 27.7969C232.674 27.3452 233.356 26.7102 233.825 25.892C234.302 25.0739 234.54 24.1065 234.54 22.9901L235.665 23.1562H228.915V18.9886H239.871V22.2869C239.871 24.5881 239.386 26.5653 238.414 28.2188C237.442 29.8636 236.104 31.1335 234.4 32.0284C232.695 32.9148 230.744 33.358 228.545 33.358C226.09 33.358 223.934 32.8168 222.076 31.7344C220.218 30.6435 218.769 29.0966 217.729 27.0938C216.698 25.0824 216.183 22.696 216.183 19.9347C216.183 17.8125 216.489 15.9205 217.103 14.2585C217.725 12.5881 218.594 11.1733 219.711 10.0142C220.827 8.85511 222.127 7.97301 223.61 7.3679C225.093 6.76278 226.7 6.46023 228.43 6.46023C229.913 6.46023 231.293 6.67756 232.572 7.11222C233.85 7.53835 234.984 8.14347 235.972 8.92756C236.969 9.71165 237.783 10.6449 238.414 11.7273C239.045 12.8011 239.45 13.9858 239.629 15.2812H234.004Z" fill="#373F51"/>
    <defs>
    <clipPath id="clip0_4504_22809">
    <rect width="133" height="30" fill="white" transform="translate(0 5)"/>
    </clipPath>
    </defs>
    </svg>
    