<svg width="20" height="20" viewBox="0 0 20 20" fill="none" xmlns="http://www.w3.org/2000/svg">
<mask id="mask0_3513_18460" style="mask-type:alpha" maskUnits="userSpaceOnUse" x="0" y="0" width="20" height="20">
<rect width="20" height="20" fill="#D9D9D9"/>
</mask>
<g mask="url(#mask0_3513_18460)">
<path d="M13.4444 17.5926C12.8272 17.5926 12.3025 17.3766 11.8704 16.9445C11.4383 16.5124 11.2222 15.9877 11.2222 15.3704C11.2222 15.284 11.2284 15.1945 11.2407 15.1019C11.2531 15.0093 11.2716 14.926 11.2963 14.8519L6.07407 11.8149C5.8642 12.0001 5.62963 12.1451 5.37037 12.2501C5.11111 12.355 4.83951 12.4075 4.55556 12.4075C3.93827 12.4075 3.41358 12.1914 2.98148 11.7593C2.54938 11.3272 2.33333 10.8025 2.33333 10.1852C2.33333 9.56796 2.54938 9.04326 2.98148 8.61117C3.41358 8.17907 3.93827 7.96302 4.55556 7.96302C4.83951 7.96302 5.11111 8.01549 5.37037 8.12042C5.62963 8.22536 5.8642 8.37043 6.07407 8.55561L11.2963 5.51857C11.2716 5.4445 11.2531 5.36117 11.2407 5.26857C11.2284 5.17598 11.2222 5.08647 11.2222 5.00005C11.2222 4.38277 11.4383 3.85808 11.8704 3.42598C12.3025 2.99388 12.8272 2.77783 13.4444 2.77783C14.0617 2.77783 14.5864 2.99388 15.0185 3.42598C15.4506 3.85808 15.6667 4.38277 15.6667 5.00005C15.6667 5.61734 15.4506 6.14203 15.0185 6.57413C14.5864 7.00623 14.0617 7.22228 13.4444 7.22228C13.1605 7.22228 12.8889 7.16981 12.6296 7.06487C12.3704 6.95993 12.1358 6.81487 11.9259 6.62968L6.7037 9.66672C6.72839 9.7408 6.74691 9.82413 6.75926 9.91672C6.7716 10.0093 6.77778 10.0988 6.77778 10.1852C6.77778 10.2717 6.7716 10.3612 6.75926 10.4538C6.74691 10.5464 6.72839 10.6297 6.7037 10.7038L11.9259 13.7408C12.1358 13.5556 12.3704 13.4105 12.6296 13.3056C12.8889 13.2007 13.1605 13.1482 13.4444 13.1482C14.0617 13.1482 14.5864 13.3643 15.0185 13.7964C15.4506 14.2284 15.6667 14.7531 15.6667 15.3704C15.6667 15.9877 15.4506 16.5124 15.0185 16.9445C14.5864 17.3766 14.0617 17.5926 13.4444 17.5926Z" fill="#373F51"/>
</g>
</svg>
